<?xml version="1.0" encoding="UTF-8" standalone="no"?>
<svg width="317px" height="317px" viewBox="0 0 317 317" version="1.1" xmlns="http://www.w3.org/2000/svg" xmlns:xlink="http://www.w3.org/1999/xlink">
    <!-- Generator: Sketch 3.6.1 (26313) - http://www.bohemiancoding.com/sketch -->
    <title>eff-svg 2</title>
    <desc>Created with Sketch.</desc>
    <defs></defs>
    <g id="Page-1" stroke="none" stroke-width="1" fill="none" fill-rule="evenodd">
        <g id="eff-svg">
            <rect id="Rectangle-1" fill="#FFFFFF" x="0" y="0" width="317" height="317"></rect>
            <g id="Page-1" transform="translate(0.000000, 80.000000)">
                <g id="EFF-logo-name-stack">
                    <g id="Group-4" transform="translate(79.000000, 0.000000)" stroke="#FFFFFF" stroke-width="8.831">
                        <path d="M29.567,71.971 L29.567,53.662 L48.031,53.662 C48.508,60.201 50.255,66.378 53.028,71.971 L29.567,71.971 L29.567,71.971 L29.567,71.971 Z M29.567,28.02 L53.028,28.02 C50.779,32.543 49.197,37.476 48.424,42.675 L29.567,42.675 L29.567,28.02 L29.567,28.02 L29.567,28.02 Z M97.328,0.557 C82.686,0.557 69.537,6.919 60.484,17.04 L0.27,17.04 L0.27,82.956 L60.484,82.956 C69.537,93.073 82.686,99.437 97.328,99.437 C124.639,99.437 146.773,77.308 146.773,49.997 C146.773,22.686 124.639,0.557 97.328,0.557 L97.328,0.557 L97.328,0.557 Z" id="Stroke-3"></path>
                    </g>
                    <path d="M126.882,49.997 C126.882,22.686 149.022,0.557 176.328,0.557 C203.639,0.557 225.773,22.686 225.773,49.997 C225.773,77.308 203.639,99.437 176.328,99.437 C149.022,99.437 126.882,77.308 126.882,49.997" id="Fill-5" fill="#D9222A"></path>
                    <path d="M79.27,17.04 L161.678,17.04 L161.678,28.02 L108.567,28.02 L108.567,42.675 L159.842,42.675 L159.842,53.662 L108.567,53.662 L108.567,71.971 L161.678,71.971 L161.678,82.956 L79.27,82.956 L79.27,17.04" id="Fill-6" fill="#0B0D03"></path>
                    <path d="M172.666,17.04 L172.666,46.333 L178.156,46.333 L178.156,35.342 L181.825,35.342 L181.825,29.853 L178.156,29.853 L178.156,22.523 L183.647,22.523 L183.647,17.04 L172.666,17.04" id="Fill-7" fill="#FFFFFF"></path>
                    <path d="M172.666,53.662 L172.666,82.956 L178.156,82.956 L178.156,71.971 L181.825,71.971 L181.825,66.475 L178.156,66.475 L178.156,59.149 L183.647,59.149 L183.647,53.662 L172.666,53.662" id="Fill-8" fill="#FFFFFF"></path>
                    <path d="M209.04,116.896 L216.7,116.896 L216.7,119.316 L211.61,119.316 L211.61,124.757 L216.046,124.757 L216.046,127.175 L211.61,127.175 L211.61,134.835 L209.04,134.835 L209.04,116.896" id="Fill-9" fill="#1A1918"></path>
                    <path d="M221.034,130.603 C221.034,131.837 221.841,132.417 222.772,132.417 C223.706,132.417 224.513,131.837 224.513,130.603 L224.513,121.13 C224.513,119.894 223.706,119.316 222.772,119.316 C221.841,119.316 221.034,119.894 221.034,121.13 L221.034,130.603 L221.034,130.603 L221.034,130.603 Z M218.466,121.13 C218.466,118.207 220.683,116.746 222.772,116.746 C224.864,116.746 227.083,118.207 227.083,121.13 L227.083,130.603 C227.083,133.525 224.864,134.988 222.772,134.988 C220.683,134.988 218.466,133.525 218.466,130.603 L218.466,121.13 L218.466,121.13 L218.466,121.13 Z" id="Fill-10" fill="#1A1918"></path>
                    <path d="M239.177,130.804 C239.177,133.148 237.312,134.988 235.019,134.988 C232.726,134.988 230.86,133.148 230.86,130.804 L230.86,116.896 L233.431,116.896 L233.431,130.552 C233.431,131.812 234.112,132.417 235.019,132.417 C235.925,132.417 236.606,131.812 236.606,130.552 L236.606,116.896 L239.177,116.896 L239.177,130.804" id="Fill-11" fill="#1A1918"></path>
                    <path d="M243.005,116.896 L245.476,116.896 L249.354,127.705 L249.405,127.705 L249.405,116.896 L251.976,116.896 L251.976,134.835 L249.558,134.835 L245.628,124.05 L245.575,124.05 L245.575,134.835 L243.005,134.835 L243.005,116.896" id="Fill-12" fill="#1A1918"></path>
                    <path d="M258.376,132.417 L259.558,132.417 C260.995,132.417 261.55,131.712 261.55,130.175 L261.55,121.533 C261.55,120.123 261.071,119.316 259.558,119.316 L258.376,119.316 L258.376,132.417 L258.376,132.417 L258.376,132.417 Z M255.806,116.896 L259.61,116.896 C262.507,116.896 264.12,118.634 264.12,121.533 L264.12,129.921 C264.12,133.25 262.405,134.835 259.384,134.835 L255.806,134.835 L255.806,116.896 L255.806,116.896 L255.806,116.896 Z" id="Fill-13" fill="#1A1918"></path>
                    <path d="M271.679,122.062 L271.628,122.062 L270.37,128.562 L272.938,128.562 L271.679,122.062 L271.679,122.062 L271.679,122.062 Z M270.595,116.896 L272.737,116.896 L276.743,134.835 L274.173,134.835 L273.417,130.98 L269.915,130.98 L269.159,134.835 L266.589,134.835 L270.595,116.896 L270.595,116.896 L270.595,116.896 Z" id="Fill-14" fill="#1A1918"></path>
                    <path d="M279.819,119.316 L276.847,119.316 L276.847,116.896 L285.362,116.896 L285.362,119.316 L282.388,119.316 L282.388,134.835 L279.819,134.835 L279.819,119.316" id="Fill-15" fill="#1A1918"></path>
                    <path d="M288.083,134.835 L290.653,134.835 L290.653,116.896 L288.083,116.896 L288.083,134.835 L288.083,134.835 Z" id="Fill-16" fill="#1A1918"></path>
                    <path d="M297.077,130.603 C297.077,131.837 297.884,132.417 298.815,132.417 C299.749,132.417 300.554,131.837 300.554,130.603 L300.554,121.13 C300.554,119.894 299.749,119.316 298.815,119.316 C297.884,119.316 297.077,119.894 297.077,121.13 L297.077,130.603 L297.077,130.603 L297.077,130.603 Z M294.509,121.13 C294.509,118.207 296.726,116.746 298.815,116.746 C300.907,116.746 303.124,118.207 303.124,121.13 L303.124,130.603 C303.124,133.525 300.907,134.988 298.815,134.988 C296.726,134.988 294.509,133.525 294.509,130.603 L294.509,121.13 L294.509,121.13 L294.509,121.13 Z" id="Fill-17" fill="#1A1918"></path>
                    <path d="M306.804,116.896 L309.272,116.896 L313.153,127.705 L313.202,127.705 L313.202,116.896 L315.772,116.896 L315.772,134.835 L313.354,134.835 L309.425,124.05 L309.374,124.05 L309.374,134.835 L306.804,134.835 L306.804,116.896" id="Fill-18" fill="#1A1918"></path>
                    <path d="M0.018,116.896 L7.677,116.896 L7.677,119.316 L2.587,119.316 L2.587,124.582 L7.023,124.582 L7.023,127 L2.587,127 L2.587,132.265 L7.677,132.265 L7.677,134.835 L0.018,134.835 L0.018,116.896" id="Fill-19" fill="#1A1918"></path>
                    <path d="M10.852,116.896 L13.421,116.896 L13.421,132.265 L18.511,132.265 L18.511,134.835 L10.852,134.835 L10.852,116.896" id="Fill-20" fill="#1A1918"></path>
                    <path d="M21.686,116.896 L29.346,116.896 L29.346,119.316 L24.256,119.316 L24.256,124.582 L28.691,124.582 L28.691,127 L24.256,127 L24.256,132.265 L29.346,132.265 L29.346,134.835 L21.686,134.835 L21.686,116.896" id="Fill-21" fill="#1A1918"></path>
                    <path d="M40.684,130.83 C40.684,133.046 38.895,134.988 36.602,134.988 C34.637,134.988 32.369,134.031 32.369,130.753 L32.369,120.876 C32.369,118.535 34.057,116.746 36.552,116.746 C38.92,116.746 40.684,118.535 40.684,121.029 L40.684,122.037 L38.113,122.037 L38.113,121.179 C38.113,120.171 37.51,119.316 36.526,119.316 C35.241,119.316 34.939,120.197 34.939,121.406 L34.939,130.578 C34.939,131.611 35.342,132.417 36.501,132.417 C37.206,132.417 38.113,132.015 38.113,130.603 L38.113,129.722 L40.684,129.722 L40.684,130.83" id="Fill-22" fill="#1A1918"></path>
                    <path d="M45.219,119.316 L42.245,119.316 L42.245,116.896 L50.762,116.896 L50.762,119.316 L47.789,119.316 L47.789,134.835 L45.219,134.835 L45.219,119.316" id="Fill-23" fill="#1A1918"></path>
                    <path d="M55.977,124.908 L57.439,124.908 C59.228,124.908 59.505,123.9 59.505,122.111 C59.505,120.3 59.202,119.316 57.313,119.316 L55.977,119.316 L55.977,124.908 L55.977,124.908 L55.977,124.908 Z M53.407,116.896 L57.539,116.896 C60.588,116.896 62.074,118.685 62.074,122.162 C62.074,124.228 61.495,125.74 59.857,126.646 L62.629,134.835 L59.907,134.835 L57.514,127.175 L55.977,127.175 L55.977,134.835 L53.407,134.835 L53.407,116.896 L53.407,116.896 L53.407,116.896 Z" id="Fill-24" fill="#1A1918"></path>
                    <path d="M68.07,130.603 C68.07,131.837 68.877,132.417 69.81,132.417 C70.742,132.417 71.549,131.837 71.549,130.603 L71.549,121.13 C71.549,119.894 70.742,119.316 69.81,119.316 C68.877,119.316 68.07,119.894 68.07,121.13 L68.07,130.603 L68.07,130.603 L68.07,130.603 Z M65.501,121.13 C65.501,118.207 67.719,116.746 69.81,116.746 C71.902,116.746 74.118,118.207 74.118,121.13 L74.118,130.603 C74.118,133.525 71.902,134.988 69.81,134.988 C67.719,134.988 65.501,133.525 65.501,130.603 L65.501,121.13 L65.501,121.13 L65.501,121.13 Z" id="Fill-25" fill="#1A1918"></path>
                    <path d="M77.797,116.896 L80.266,116.896 L84.146,127.705 L84.195,127.705 L84.195,116.896 L86.768,116.896 L86.768,134.835 L84.348,134.835 L80.417,124.05 L80.367,124.05 L80.367,134.835 L77.797,134.835 L77.797,116.896" id="Fill-26" fill="#1A1918"></path>
                    <path d="M90.672,134.835 L93.242,134.835 L93.242,116.896 L90.672,116.896 L90.672,134.835 L90.672,134.835 Z" id="Fill-27" fill="#1A1918"></path>
                    <path d="M105.412,130.83 C105.412,133.046 103.623,134.988 101.329,134.988 C99.363,134.988 97.098,134.031 97.098,130.753 L97.098,120.876 C97.098,118.535 98.785,116.746 101.279,116.746 C103.647,116.746 105.412,118.535 105.412,121.029 L105.412,122.037 L102.842,122.037 L102.842,121.179 C102.842,120.171 102.236,119.316 101.254,119.316 C99.969,119.316 99.667,120.197 99.667,121.406 L99.667,130.578 C99.667,131.611 100.07,132.417 101.229,132.417 C101.934,132.417 102.842,132.015 102.842,130.603 L102.842,129.722 L105.412,129.722 L105.412,130.83" id="Fill-28" fill="#1A1918"></path>
                    <path d="M115.213,116.896 L122.872,116.896 L122.872,119.316 L117.781,119.316 L117.781,124.757 L122.217,124.757 L122.217,127.175 L117.781,127.175 L117.781,134.835 L115.213,134.835 L115.213,116.896" id="Fill-29" fill="#1A1918"></path>
                    <path d="M128.617,124.908 L130.078,124.908 C131.867,124.908 132.144,123.9 132.144,122.111 C132.144,120.3 131.842,119.316 129.951,119.316 L128.617,119.316 L128.617,124.908 L128.617,124.908 L128.617,124.908 Z M126.047,116.896 L130.179,116.896 C133.229,116.896 134.714,118.685 134.714,122.162 C134.714,124.228 134.135,125.74 132.497,126.646 L135.268,134.835 L132.547,134.835 L130.154,127.175 L128.617,127.175 L128.617,134.835 L126.047,134.835 L126.047,116.896 L126.047,116.896 L126.047,116.896 Z" id="Fill-30" fill="#1A1918"></path>
                    <path d="M140.711,130.603 C140.711,131.837 141.517,132.417 142.449,132.417 C143.381,132.417 144.188,131.837 144.188,130.603 L144.188,121.13 C144.188,119.894 143.381,119.316 142.449,119.316 C141.517,119.316 140.711,119.894 140.711,121.13 L140.711,130.603 L140.711,130.603 L140.711,130.603 Z M138.142,121.13 C138.142,118.207 140.358,116.746 142.449,116.746 C144.541,116.746 146.757,118.207 146.757,121.13 L146.757,130.603 C146.757,133.525 144.541,134.988 142.449,134.988 C140.358,134.988 138.142,133.525 138.142,130.603 L138.142,121.13 L138.142,121.13 L138.142,121.13 Z" id="Fill-31" fill="#1A1918"></path>
                    <path d="M150.437,116.896 L152.905,116.896 L156.786,127.705 L156.837,127.705 L156.837,116.896 L159.405,116.896 L159.405,134.835 L156.987,134.835 L153.058,124.05 L153.007,124.05 L153.007,134.835 L150.437,134.835 L150.437,116.896" id="Fill-32" fill="#1A1918"></path>
                    <path d="M164.923,119.316 L161.952,119.316 L161.952,116.896 L170.468,116.896 L170.468,119.316 L167.493,119.316 L167.493,134.835 L164.923,134.835 L164.923,119.316" id="Fill-33" fill="#1A1918"></path>
                    <path d="M173.188,134.835 L175.757,134.835 L175.757,116.896 L173.188,116.896 L173.188,134.835 L173.188,134.835 Z" id="Fill-34" fill="#1A1918"></path>
                    <path d="M179.765,116.896 L187.423,116.896 L187.423,119.316 L182.333,119.316 L182.333,124.582 L186.769,124.582 L186.769,127 L182.333,127 L182.333,132.265 L187.423,132.265 L187.423,134.835 L179.765,134.835 L179.765,116.896" id="Fill-35" fill="#1A1918"></path>
                    <path d="M193.169,124.908 L194.63,124.908 C196.419,124.908 196.696,123.9 196.696,122.111 C196.696,120.3 196.394,119.316 194.503,119.316 L193.169,119.316 L193.169,124.908 L193.169,124.908 L193.169,124.908 Z M190.599,116.896 L194.729,116.896 C197.778,116.896 199.267,118.685 199.267,122.162 C199.267,124.228 198.687,125.74 197.05,126.646 L199.821,134.835 L197.099,134.835 L194.704,127.175 L193.169,127.175 L193.169,134.835 L190.599,134.835 L190.599,116.896 L190.599,116.896 L190.599,116.896 Z" id="Fill-36" fill="#1A1918"></path>
                </g>
            </g>
        </g>
    </g>
</svg>