<?xml version="1.0" encoding="UTF-8" standalone="no"?>
<svg width="600px" height="584px" viewBox="0 0 600 584" version="1.1" xmlns="http://www.w3.org/2000/svg" xmlns:xlink="http://www.w3.org/1999/xlink">
    <!-- Generator: Sketch 3.6.1 (26313) - http://www.bohemiancoding.com/sketch -->
    <title>ia</title>
    <desc>Created with Sketch.</desc>
    <defs></defs>
    <g id="Page-1" stroke="none" stroke-width="1" fill="none" fill-rule="evenodd">
        <g id="A" fill="#000000">
            <g id="Group" transform="translate(105.000000, 0.000000)">
                <path d="M41.564,60.034 L34.981,41.778 L12.6,41.778 L6.017,60.034 L0.576,60.034 L18.042,12.2 C18.393,11.322 19.534,7.811 19.534,7.022 C19.534,3.335 15.496,3.335 12.776,2.897 L12.776,0.965 L29.276,0.965 L50.692,60.033 L41.564,60.033 L41.564,60.034 Z M23.483,12.024 L14.092,37.653 L33.489,37.653 L23.483,12.024 L23.483,12.024 Z" id="Shape"></path>
                <path d="M116.758,60.034 L101.223,32.738 L95.782,32.738 L95.782,60.034 L86.127,60.034 L86.127,12.901 C86.127,4.475 86.127,4.125 77.789,2.896 L77.789,0.965 L100.346,0.965 C110.966,0.965 124.131,3.247 124.131,16.675 C124.131,25.54 119.041,29.841 110.702,31.157 L126.852,60.033 L116.758,60.033 L116.758,60.034 Z M101.662,5.09 C95.343,5.09 95.782,7.46 95.782,12.989 L95.782,28.612 L100.784,28.612 C108.42,28.612 114.476,25.803 114.476,17.202 C114.476,8.513 110,5.09 101.662,5.09 L101.662,5.09 Z" id="Shape"></path>
                <path d="M182.723,60.911 C162.536,60.911 156.831,47.834 156.831,29.665 C156.831,12.726 162.448,0.701 181.319,0.701 C187.287,0.701 193.255,1.491 198.873,3.334 L199.399,17.992 L196.854,17.992 C196.678,16.149 195.976,14.218 195.011,12.638 C192.289,7.898 187.725,4.914 182.196,4.914 C168.943,4.914 167.188,19.484 167.188,29.665 C167.188,40.548 170.523,55.996 184.215,55.996 C190.008,55.996 194.836,54.855 199.575,51.519 L199.575,57.575 C194.045,60.034 188.778,60.911 182.723,60.911 L182.723,60.911 Z" id="Shape"></path>
                <path d="M271.778,60.034 L271.778,31.333 L247.906,31.333 L247.906,60.034 L238.251,60.034 L238.251,12.551 C238.251,4.915 236.847,4.739 229.475,3.95 L229.475,2.019 L247.906,0 L247.906,27.208 L271.778,27.208 L271.778,0.965 L281.433,0.965 L281.433,60.033 L271.778,60.033 L271.778,60.034 Z" id="Shape"></path>
                <path d="M315.354,60.034 L315.354,57.84 C321.937,57.84 322.815,56.085 322.815,49.677 L322.815,11.937 C322.815,5.53 321.937,3.774 315.354,3.774 L315.354,1.58 L339.929,1.58 L339.929,3.774 C333.347,3.774 332.469,5.617 332.469,11.937 L332.469,49.677 C332.469,55.997 333.347,57.84 339.929,57.84 L339.929,60.034 L315.354,60.034 L315.354,60.034 Z" id="Shape"></path>
                <path d="M404.035,60.034 L396.399,60.034 L379.196,12.2 C376.563,4.827 376.125,4.301 368.577,2.896 L368.577,0.965 L385.603,0.965 L402.806,49.062 L402.981,49.062 L419.746,0.965 L425.451,0.965 L404.035,60.034 L404.035,60.034 Z" id="Shape"></path>
                <path d="M494.734,60.034 L459.714,60.034 L459.714,12.901 C459.714,4.475 459.626,4.213 451.375,2.896 L451.375,0.965 L493.417,0.965 L493.681,13.955 L491.223,13.955 C491.223,7.372 487.976,5.09 481.744,5.09 L474.897,5.09 C470.86,5.09 469.368,5.178 469.368,9.654 L469.368,27.12 L479.988,27.12 C484.991,27.12 486.395,24.838 487.185,20.362 L489.642,20.362 L489.642,38.794 L487.185,38.794 C487.185,33.878 485.079,31.246 479.988,31.246 L469.368,31.246 L469.368,50.818 C469.368,55.646 470.422,55.909 474.897,55.909 L484.64,55.909 C490.608,55.909 492.1,52.925 492.538,47.307 L494.996,47.307 L494.734,60.034 L494.734,60.034 Z" id="Shape"></path>
            </g>
            <rect id="Rectangle-path" x="139.201" y="558.561" width="423.263" height="21.705"></rect>
            <rect id="Rectangle-path" x="155.897" y="516.818" width="390.704" height="30.055"></rect>
            <rect id="Rectangle-path" x="153.393" y="174.535" width="388.617" height="41.742"></rect>
            <path d="M347.701,101.486 L144.21,149.072 L155.897,162.012 L347.701,162.012 L539.506,162.012 L551.193,149.072 L347.701,101.486 Z" id="Shape"></path>
            <g id="Group" transform="translate(0.000000, 9.000000)">
                <path d="M59.068,574.111 L56.874,574.111 C56.874,567.529 55.119,566.651 48.711,566.651 L10.971,566.651 C4.564,566.651 2.809,567.529 2.809,574.111 L0.614,574.111 L0.614,549.536 L2.808,549.536 C2.808,556.119 4.651,556.997 10.97,556.997 L48.711,556.997 C55.03,556.997 56.874,556.119 56.874,549.536 L59.068,549.536 L59.068,574.111 L59.068,574.111 Z" id="Shape"></path>
                <path d="M59.068,477.655 L9.127,506.619 L9.127,506.795 L59.068,506.795 L59.068,512.324 L11.234,512.324 C2.984,512.324 3.335,513.64 1.93,521.1 L0,521.1 L0,502.581 L47.746,474.933 L47.746,474.758 L0,474.758 L0,469.229 L59.068,469.229 L59.068,477.655 L59.068,477.655 Z" id="Shape"></path>
                <path d="M12.989,390.853 C6.143,390.853 4.125,393.837 4.125,400.42 L4.125,406.388 L59.068,406.388 L59.068,416.043 L4.125,416.043 L4.125,422.099 C4.125,428.769 6.056,431.051 12.726,431.578 L12.726,434.036 L0,433.685 L0,388.747 L12.989,388.396 L12.989,390.853 L12.989,390.853 Z" id="Shape"></path>
                <path d="M59.068,318.093 L59.068,353.114 L11.936,353.114 C3.51,353.114 3.248,353.201 1.931,361.452 L0,361.452 L0,319.41 L12.989,319.147 L12.989,321.604 C6.406,321.604 4.125,324.852 4.125,331.083 L4.125,337.929 C4.125,341.966 4.213,343.458 8.689,343.458 L26.155,343.458 L26.155,332.838 C26.155,327.836 23.873,326.432 19.397,325.641 L19.397,323.184 L37.829,323.184 L37.829,325.641 C32.914,325.641 30.281,327.747 30.281,332.838 L30.281,343.458 L49.853,343.458 C54.681,343.458 54.944,342.405 54.944,337.929 L54.944,328.187 C54.944,322.218 51.96,320.727 46.342,320.288 L46.342,317.831 L59.068,318.093 L59.068,318.093 Z" id="Shape"></path>
                <path d="M59.068,247.44 L31.772,262.975 L31.772,268.417 L59.068,268.417 L59.068,278.071 L11.936,278.071 C3.51,278.071 3.16,278.071 1.931,286.409 L0,286.409 L0,263.853 C0,253.233 2.282,240.067 15.71,240.067 C24.574,240.067 28.876,245.158 30.191,253.496 L59.067,237.347 L59.067,247.44 L59.068,247.44 Z M4.125,262.536 C4.125,268.856 6.495,268.417 12.024,268.417 L27.647,268.417 L27.647,263.414 C27.647,255.778 24.838,249.722 16.237,249.722 C7.548,249.722 4.125,254.198 4.125,262.536 L4.125,262.536 Z" id="Shape"></path>
                <path d="M59.068,164.938 L9.127,193.902 L9.127,194.078 L59.068,194.078 L59.068,199.607 L11.234,199.607 C2.984,199.607 3.335,200.923 1.93,208.384 L0,208.384 L0,189.865 L47.746,162.218 L47.746,162.043 L0,162.043 L0,156.513 L59.068,156.513 L59.068,164.938 L59.068,164.938 Z" id="Shape"></path>
                <path d="M59.068,78.662 L59.068,113.683 L11.936,113.683 C3.51,113.683 3.248,113.77 1.931,122.02 L0,122.02 L0,79.979 L12.989,79.716 L12.989,82.174 C6.406,82.174 4.125,85.421 4.125,91.653 L4.125,98.499 C4.125,102.536 4.213,104.028 8.689,104.028 L26.155,104.028 L26.155,93.408 C26.155,88.405 23.873,87.001 19.397,86.211 L19.397,83.753 L37.829,83.753 L37.829,86.211 C32.914,86.211 30.281,88.317 30.281,93.408 L30.281,104.028 L49.853,104.028 C54.681,104.028 54.944,102.975 54.944,98.499 L54.944,88.756 C54.944,82.788 51.96,81.296 46.342,80.857 L46.342,78.399 L59.068,78.662 L59.068,78.662 Z" id="Shape"></path>
                <path d="M12.989,3.182 C6.143,3.182 4.125,6.166 4.125,12.749 L4.125,18.718 L59.068,18.718 L59.068,28.372 L4.125,28.372 L4.125,34.428 C4.125,41.099 6.056,43.381 12.726,43.907 L12.726,46.365 L0,46.013 L0,1.075 L12.989,0.724 L12.989,3.182 L12.989,3.182 Z" id="Shape"></path>
            </g>
            <path d="M209.446,348.42 C209.111,327.92 208.58,307.419 207.777,286.933 C207.021,267.631 205.777,248.348 204.838,229.052 C204.757,227.386 204.051,227.026 202.669,226.724 C196.976,225.483 191.253,224.9 185.506,224.891 C179.759,224.9 174.036,225.483 168.343,226.724 C166.961,227.025 166.255,227.386 166.174,229.052 C165.235,248.348 163.991,267.631 163.235,286.933 C162.432,307.419 161.9,327.92 161.566,348.42 C161.329,362.948 161.476,377.487 161.706,392.019 C161.96,408.14 162.318,424.265 162.971,440.374 C163.671,457.662 164.753,474.936 165.702,492.213 C165.884,495.524 166.223,498.826 166.482,502.044 C172.861,503.704 179.186,504.663 185.507,504.742 C191.828,504.663 198.152,503.704 204.532,502.044 C204.791,498.826 205.129,495.523 205.311,492.213 C206.26,474.936 207.342,457.662 208.042,440.374 C208.695,424.265 209.053,408.14 209.307,392.019 C209.536,377.487 209.684,362.948 209.446,348.42 L209.446,348.42 Z" id="Shape"></path>
            <path d="M315.257,348.42 C314.922,327.92 314.39,307.419 313.587,286.933 C312.83,267.631 311.586,248.348 310.648,229.052 C310.567,227.386 309.862,227.026 308.479,226.724 C302.787,225.483 297.063,224.9 291.317,224.891 C285.57,224.9 279.847,225.483 274.154,226.724 C272.772,227.025 272.066,227.386 271.985,229.052 C271.047,248.348 269.802,267.631 269.046,286.933 C268.243,307.419 267.711,327.92 267.377,348.42 C267.14,362.948 267.287,377.487 267.516,392.019 C267.771,408.14 268.128,424.265 268.781,440.374 C269.482,457.662 270.563,474.936 271.512,492.213 C271.694,495.524 272.033,498.826 272.291,502.044 C278.671,503.704 284.996,504.663 291.316,504.742 C297.637,504.663 303.961,503.704 310.341,502.044 C310.599,498.826 310.938,495.523 311.12,492.213 C312.068,474.936 313.15,457.662 313.85,440.374 C314.503,424.265 314.861,408.14 315.116,392.019 C315.347,377.487 315.494,362.948 315.257,348.42 L315.257,348.42 Z" id="Shape"></path>
            <path d="M437.972,348.42 C437.637,327.92 437.106,307.419 436.302,286.933 C435.546,267.631 434.302,248.348 433.364,229.052 C433.282,227.386 432.577,227.026 431.194,226.724 C425.502,225.483 419.779,224.9 414.032,224.891 C408.285,224.9 402.562,225.483 396.869,226.724 C395.487,227.025 394.781,227.386 394.7,229.052 C393.762,248.348 392.517,267.631 391.762,286.933 C390.958,307.419 390.427,327.92 390.092,348.42 C389.855,362.948 390.002,377.487 390.232,392.019 C390.487,408.14 390.844,424.265 391.497,440.374 C392.198,457.662 393.279,474.936 394.228,492.213 C394.411,495.524 394.749,498.826 395.007,502.044 C401.387,503.704 407.711,504.663 414.032,504.742 C420.353,504.663 426.677,503.704 433.057,502.044 C433.315,498.826 433.654,495.523 433.836,492.213 C434.785,474.936 435.866,457.662 436.567,440.374 C437.219,424.265 437.577,408.14 437.832,392.019 C438.062,377.487 438.209,362.948 437.972,348.42 L437.972,348.42 Z" id="Shape"></path>
            <path d="M541.277,348.42 C540.942,327.92 540.411,307.419 539.608,286.933 C538.851,267.631 537.607,248.348 536.669,229.052 C536.587,227.386 535.882,227.026 534.499,226.724 C528.808,225.483 523.084,224.9 517.337,224.891 C511.591,224.9 505.867,225.483 500.175,226.724 C498.792,227.025 498.087,227.386 498.006,229.052 C497.067,248.348 495.822,267.631 495.067,286.933 C494.264,307.419 493.732,327.92 493.397,348.42 C493.16,362.948 493.307,377.487 493.537,392.019 C493.792,408.14 494.149,424.265 494.803,440.374 C495.503,457.662 496.585,474.936 497.533,492.213 C497.716,495.524 498.054,498.826 498.312,502.044 C504.693,503.704 511.017,504.663 517.337,504.742 C523.658,504.663 529.983,503.704 536.362,502.044 C536.621,498.826 536.959,495.523 537.141,492.213 C538.09,474.936 539.172,457.662 539.872,440.374 C540.525,424.265 540.882,408.14 541.137,392.019 C541.367,377.487 541.515,362.948 541.277,348.42 L541.277,348.42 Z" id="Shape"></path>
        </g>
    </g>
</svg>